#!OML:ASF H:\Dans Jumps\Project 1\Capture day 1\Session 1\subject.ASF
:FULLY-SPECIFIED
:DEGREES
241
root 0.00559623 15.3581 -12.4422 29.2686 1.08896 -3.62374
lowerback 17.8277 1.25317 -1.32872
upperback -0.973659 1.77128 3.48216
thorax -11.2927 1.04364 4.12034
lowerneck -24.5772 0.299427 -1.50968
upperneck 12.132 1.01189 -0.584359
head 7.70613 0.344016 0.179395
rclavicle -1.98785e-016 7.15625e-015
rhumerus -11.9898 -22.6714 -78.7863
rradius 25.6818
rwrist 31.5924
rhand -22.0415 -25.6357
rfingers 7.12502
rthumb 4.36869 -55.5706
lclavicle -1.98785e-016 7.15625e-015
lhumerus -9.01051 31.4206 83.2602
lradius 11.7596
lwrist -14.7217
lhand -27.4556 -6.75479
lfingers 7.12502
lthumb -0.860165 23.2232
rfemur -55.4657 1.1617 24.85
rtibia 65.9479
rfoot -35.2599 -20.6139
rtoes -4.36409
lfemur -57.266 7.83282 -19.1761
ltibia 67.5363
lfoot -30.6098 23.7843
ltoes -16.2069
242
root 0.00679068 15.3984 -12.2663 28.9003 1.08758 -3.55841
lowerback 17.503 1.25492 -1.39991
upperback -1.05117 1.76056 3.48759
thorax -11.1948 1.04331 4.17103
lowerneck -24.6509 0.2718 -1.57788
upperneck 12.4645 0.988966 -0.508632
head 7.82955 0.334362 0.213666
rclavicle -8.94531e-015 -5.84427e-014
rhumerus -11.5811 -22.2953 -79.0209
rradius 25.9821
rwrist 31.2298
rhand -22.0415 -25.6507
rfingers 7.12502
rthumb 4.36873 -55.5856
lclavicle -8.94531e-015 -5.84427e-014
lhumerus -8.4099 29.9264 83.8745
lradius 12.1022
lwrist -13.3152
lhand -27.6767 -6.96998
lfingers 7.12502
lthumb -1.07367 23.0071
rfemur -53.8351 1.09092 24.7922
rtibia 65.0604
rfoot -35.3869 -20.9451
rtoes -5.52167
lfemur -55.6439 7.92169 -19.1399
ltibia 66.7344
lfoot -30.7116 23.9687
ltoes -17.0385
243
root 0.00805847 15.4501 -12.0802 28.4432 1.08144 -3.45886
lowerback 17.1525 1.25261 -1.49241
upperback -1.09612 1.73752 3.47585
thorax -11.0438 1.03643 4.21761
lowerneck -24.6485 0.232544 -1.6605
upperneck 12.8058 0.948215 -0.405275
head 7.94401 0.31864 0.257124
rclavicle 1.33186e-014 5.56597e-015
rhumerus -11.2507 -21.8977 -79.2502
rradius 26.2457
rwrist 30.8796
rhand -22.0564 -25.6549
rfingers 7.12502
rthumb 4.35435 -55.5901
lclavicle 1.33186e-014 5.56597e-015
lhumerus -7.89009 28.4922 84.4143
lradius 12.4358
lwrist -11.97
lhand -27.902 -7.19109
lfingers 7.12502
lthumb -1.2913 22.7848
rfemur -51.9541 1.00736 24.6879
rtibia 63.9612
rfoot -35.4804 -21.193
rtoes -6.53421
lfemur -53.7733 7.98915 -19.1096
ltibia 65.7306
lfoot -30.6992 24.1237
ltoes -17.9945
244
root 0.00940374 15.5134 -11.8832 27.8873 1.07115 -3.32608
lowerback 16.774 1.24621 -1.60214
upperback -1.10494 1.70312 3.44477
thorax -10.8347 1.02283 4.25496
lowerneck -24.5645 0.182411 -1.74844
upperneck 13.1629 0.888824 -0.283191
head 8.05109 0.295936 0.305214
rclavicle -1.07344e-014 -1.59028e-015
rhumerus -11.0058 -21.4827 -79.4746
rradius 26.4626
rwrist 30.6017
rhand -22.0885 -25.6492
rfingers 7.12502
rthumb 4.32328 -55.5851
lclavicle -1.07344e-014 -1.59028e-015
lhumerus -7.45287 27.0931 84.8842
lradius 12.761
lwrist -10.6551
lhand -28.1219 -7.41242
lfingers 7.12502
lthumb -1.50364 22.562
rfemur -49.8067 0.906225 24.541
rtibia 62.6408
rfoot -35.5086 -21.3806
rtoes -7.50619
lfemur -51.6567 8.03676 -19.0796
ltibia 64.5433
lfoot -30.5509 24.2206
ltoes -19.0633
245
root 0.0110027 15.5881 -11.6748 27.2275 1.06922 -3.15589
lowerback 16.3588 1.22929 -1.71871
upperback -1.07622 1.65108 3.39124
thorax -10.5602 0.998529 4.27526
lowerneck -24.3673 0.121826 -1.83728
upperneck 13.5221 0.809614 -0.147622
head 8.14093 0.265538 0.355193
rclavicle -1.78906e-015 -3.49861e-014
rhumerus -10.8427 -21.0672 -79.6987
rradius 26.6144
rwrist 30.4515
rhand -22.1344 -25.6397
rfingers 7.12502
rthumb 4.27894 -55.5765
lclavicle -1.78906e-015 -3.49861e-014
lhumerus -7.11085 25.6775 85.2837
lradius 13.0932
lwrist -9.31695
lhand -28.3271 -7.64964
lfingers 7.12502
lthumb -1.70183 22.3233
rfemur -47.3825 0.771824 24.3506
rtibia 61.0976
rfoot -35.4626 -21.4888
rtoes -8.45366
lfemur -49.3136 8.06051 -19.0503
ltibia 63.2077
lfoot -30.2311 24.225
ltoes -20.2517
246
root 0.0130551 15.6734 -11.4548 26.4836 1.06472 -2.96066
lowerback 15.8701 1.20441 -1.83482
upperback -1.0105 1.58689 3.31452
thorax -10.2004 0.965277 4.27203
lowerneck -24.0609 0.0564946 -1.91601
upperneck 13.8972 0.716909 -0.0111467
head 8.21868 0.229473 0.401955
rclavicle 1.39149e-015 -1.74931e-014
rhumerus -10.7567 -20.6659 -79.9296
rradius 26.7011
rwrist 30.451
rhand -22.1675 -25.6308
rfingers 7.12502
rthumb 4.24701 -55.5682
lclavicle 1.39149e-015 -1.74931e-014
lhumerus -6.86662 24.2171 85.6135
lradius 13.4375
lwrist -7.92452
lhand -28.5078 -7.91205
lfingers 7.12502
lthumb -1.87637 22.0594
rfemur -44.7194 0.6129 24.1224
rtibia 59.3457
rfoot -35.2823 -21.5255
rtoes -9.52334
lfemur -46.8059 8.08498 -19.0238
ltibia 61.7801
lfoot -29.7132 24.0913
ltoes -21.5034
247
root 0.0159586 15.768 -11.2233 25.6739 1.06544 -2.741
lowerback 15.2785 1.16662 -1.94046
upperback -0.90985 1.50679 3.2142
thorax -9.74112 0.920503 4.24008
lowerneck -23.65 -0.00709476 -1.97365
upperneck 14.3044 0.619012 0.110661
head 8.29028 0.190383 0.43966
rclavicle 4.17448e-015 -7.15625e-015
rhumerus -10.7447 -20.2745 -80.1709
rradius 26.7337
rwrist 30.5826
rhand -22.1834 -25.6098
rfingers 7.12502
rthumb 4.23172 -55.5476
lclavicle 4.17448e-015 -7.15625e-015
lhumerus -6.72022 22.7016 85.8752
lradius 13.7973
lwrist -6.48528
lhand -28.6527 -8.20902
lfingers 7.12502
lthumb -2.01632 21.7612
rfemur -41.9348 0.415664 23.8576
rtibia 57.622
rfoot -35.0752 -21.4802
rtoes -10.7332
lfemur -44.2642 8.11854 -19.0074
ltibia 60.515
lfoot -29.0898 23.8261
ltoes -22.8019
